<?xml version="1.0" encoding="utf-8"?>
<!-- Generator: Adobe Illustrator 19.2.1, SVG Export Plug-In . SVG Version: 6.00 Build 0)  -->
<svg version="1.1" id="Layer_1" xmlns="http://www.w3.org/2000/svg" xmlns:xlink="http://www.w3.org/1999/xlink" x="0px" y="0px"
	 viewBox="0 0 444 279" enable-background="new 0 0 444 279" xml:space="preserve">
<g>
	<g>
		<path fill="#FEFEFE" d="M223,280c-72.7,0-145.3,0-218,0.1c-3.4,0-4.1-0.7-4.1-4.1C1,185.7,1,95.3,0.9,5c0-3.4,0.7-4.1,4.1-4.1
			C150.3,1,295.7,1,441,0.9c3.4,0,4.1,0.7,4.1,4.1c-0.1,90.3-0.1,180.7,0,271c0,3.4-0.7,4.1-4.1,4.1C368.3,280,295.7,280,223,280z"
			/>
		<path fill="#050708" d="M288.9,262c-5.8-6.3-9.1-12.9-12.1-19.7c-11.4-25.6-18.3-52.6-25.7-79.5c-4.7-17.1-9.2-34.3-17.2-50.3
			c-1.3-2.7-2.3-5.6-6.3-6.3c-3.1-0.5-4.3-3.6-4.1-6.7c0.1-3.2-0.4-6.8,3.5-8.6c1.4-0.6,2.7-1.3,4-2c4.9-2.7,5.9-5.1,3.5-10.3
			c-2.1-4.4-2.6-9.3-6-13.3c-1.5-1.8-1.7-5.4-1.6-8.7c0.3-6.2-1.2-12.4-3.5-18.2c-0.4-0.9-2.7-1-3.3-1.9c-1.3-1.9-6.4-2.7-2.6-6.6
			c0.2-0.2,0.2-0.6,0-0.8c-2.9-5.4-2.6-7,1.6-11.1c1-0.9,2.6-1.4,1.3-3.4c-0.7-1.1,0.2-2.5,1.8-3c1.5-0.4,2.6,0.5,2.5,1.6
			c-0.1,2.7,1.9,2.1,3.3,2.6c4,1.4,6.6,2.9,7.8,8.2c1.1,4.6,0,7.2-1.3,10.9c-0.6,1.7-0.6,4.5,0.6,6.6c2.4,4.2,2.5,9.3,6.1,13.2
			c1.5,1.7,1.6,5.5,1.6,8.7c-0.1,6.2,0.3,12.8,4.2,18.3c1.8,2.5,4.8,1.6,7,1c5-1.3,8,0.5,10.2,4.6c2,3.8,2,7.1-1.7,10.1
			c-1.5,1.2-0.8,3.4-0.8,5.2c0.8,18.9,5.8,37.1,10.5,55.2c6.3,24,12.6,47.9,16,72.5C289.9,240.6,291,250.8,288.9,262z"/>
		<path d="M382.6,168.6c-2.1,9.7-6.4,12.8-13.3,10.3c-1.6-0.6-2.9-1.3-3.3-3.3c-1.8-9.4-2.5-18.8,0.1-28.2c1.1-4.1,3-8,7.8-8.8
			c4.7-0.8,8.4,1.6,11.1,5.3c1.8,2.5,3.3,5.3,4.9,8.1c2,3.5,3.6,7.1,5.7,10.5c1.3,2.1,2.4,5.6,5.3,4.9c3.3-0.8,3.7-4.5,4-7.4
			c0.5-4.5,0.6-9,1.2-13.4c0.4-3.2,1.7-6.1,5.5-5.8c3.4,0.3,6.8,0.7,7.8,5.4c2.1,9.9,3.2,19.7,0.7,29.6c-0.9,3.8-2.6,7.2-5.1,10.1
			c-6.5,7.3-10.9,7.3-17.1-0.1C393.1,180,389.2,173.5,382.6,168.6z"/>
		<path d="M183.7,118.2c-2.6,0.8-5.2,1.7-7.9,2.3c-2.6,0.6-5.3,1.3-7-1.8c-1.6-3-0.6-5.5,1.5-7.7c4.4-4.5,10.1-7,15.8-9.2
			c10.1-3.9,10.2-3.9,12.5,6.3c1.3,5.8,2.9,11.7,2.2,17.7c-0.6,5.1-3.5,6.8-7.9,4.2c-3-1.8-4.4-0.9-6.6,1.2
			c-7,6.7-15.4,9.1-24.8,6.6c-3.5-0.9-6.5-2.8-7.6-6.5c-3.9-12.9-3.2-25.3,4.1-36.9c4.2-6.7,10.2-9.1,17-7.5c4,1,6.7,5.4,5.6,10.1
			c-1,4.4-4.3,4.5-7.8,3.3c-1.5-0.5-2.4-0.3-3.3,1.1c-3,5.4-5.4,11.1-5.2,17.4c0.1,4,1.6,7.4,5.6,9.2c3.9,1.8,6.2-1.1,8.8-3
			c2.2-1.7,4-3.8,6-5.7C184.2,119.1,184,118.7,183.7,118.2z"/>
		<path d="M338.8,168.9c-3.1,0-6.2,0.2-9.3,0c-3.7-0.2-6.2-1.9-6.9-5.9c-0.7-4.1,1.9-5.7,5-7c6.7-2.6,13.7-2.4,20.6-2.2
			c1.7,0,2.3,1,2.5,2.5c1.4,7.5,3.6,14.9,3.8,22.6c0,1.3,0,2.7-0.2,4c-0.7,4.4-3.2,5.7-6.3,2.5c-3.5-3.6-5.9-3-10-1
			c-11.1,5.6-29-3.3-30.7-14.7c-1.6-10.1-2.3-19.8,2.5-29.2c4.4-8.5,12-10.2,20.1-5.1c4.4,2.7,4.9,7.1,4.7,11.3c-0.2,4.1-4,3.5-6,2
			c-4-3.1-5.4-0.8-6.9,2.3c-3.1,6.4-4.8,12.9-1,19.5c3.4,6,7.4,7,13.2,3.4c1.8-1.1,3.5-2.4,5.2-3.7
			C339,169.8,338.9,169.4,338.8,168.9z"/>
		<path d="M212,190.7c-2.7-3.7-6.2-5.4-9.2-7.5c-3.3-2.3-6.7-4.3-9.4-7.3c-6.4-7.2-3.7-16.4,5.6-18.5c6-1.4,12-2.6,18.2-2.3
			c4.9,0.2,7.3,2.7,8,8.1c0.6,4.8-2.4,6.5-6.2,7.5c-1,0.3-2.1,0.4-3.5,0.7c4.2,4.3,9,7.3,12.6,11.7c2,2.5,3.9,5,4.8,8.1
			c2,6.5,0,10-6.4,11.8c-6.9,1.9-13.9,3.2-21.1,2.2c-3.4-0.5-6.4-1.6-9.1-3.6c-1.5-1.1-3.7-2-3.1-4.6c0.5-2.3,2.1-3.9,4.3-4.4
			c2.7-0.7,5.5-1,8.3-1.4C207.5,190.8,209.4,190.8,212,190.7z"/>
		<path d="M136.7,213.4c4.1,2.6,7.8,1.3,11.6,0.8c7.7-1,10.9,0.8,11.9,6.3c0.3,1.6,0.4,2.9-1.4,3.8c-8.4,4.3-17.1,7.6-26.7,6.1
			c-7.1-1-10.4-4.9-11.1-12c-1.1-9.9,2.5-19,4.4-28.4c0.3-1.4,1.6-2.1,2.7-2.8c8.1-5.7,17.2-8.5,27-9.2c5.2-0.4,4.7,4.1,6.1,7
			c1.5,3.2-1.2,4-3.2,5c-4.1,2.1-8.7,1.8-13.1,2.9c-3.5,0.8-6.5,2.2-8.4,5.7c3.9,1.4,7.2-0.6,10.6-0.6c2.5,0,5.4-0.5,6,2.9
			c0.4,3,0.2,5.9-3.2,7.6C145.8,210.4,141.1,210.6,136.7,213.4z"/>
		<path d="M103,233.7c-0.9,10.8-6.3,21.8-12.6,32.4c-2.5,4.2-7.1,3.7-9.5-0.5c-6-10.5-12.5-20.8-17.2-31.9c-0.6-1.4-0.8-2.8-3.2-2.9
			c-4.8-0.2-5.8-2.6-3.6-7C62.2,213.3,74.2,209,87,213C97.9,216.4,103,222.3,103,233.7z"/>
		<path d="M38.8,162.1c3.9-0.1,7.6,0.8,11.2,2.2c8.1,3.2,11.6,9.5,10.6,18.2c-1.4,11.8-6.4,22.3-11.8,32.6
			c-2.8,5.3-7.2,5.1-10.2,0.1c-5.7-9.7-11.9-19.2-16.3-29.6c-0.6-1.3-0.8-2.5-3-2.4c-4.5,0.2-5.8-2-3.6-6.3
			C20.5,167.4,28.1,162.4,38.8,162.1z"/>
		<path d="M95.8,142.7c-2,1.9-3.6,4-5.9,5c-2.1,0.9-4.2,0.7-6.1-0.9c-2.1-1.8-0.3-3.4,0.5-4.8c4.1-7.6,8.4-15.1,14.4-21.5
			c3-3.2,6.4-5.9,10.6-7.3c1.4-0.5,3.2-2,4.5,0c1,1.4,0.7,3.3-0.2,4.8c-1.8,2.8-3.9,5.4-5.8,8.1c-1.6,2.3-4.4,4.5-3.5,7.4
			c2,6.3,3.3,13,7.9,18.1c1.5,1.7,3.1-0.2,4.2-1.2c3-2.9,5.8-6,8.8-8.9c2.1-2,4-2.8,6.8-0.4c2.7,2.2,2.2,4.3,0.8,6.5
			c-8.2,13.7-19.8,23.5-34.6,29.5c-0.6,0.2-1.3,0.2-2,0.3c-3,0.5-6.6,0.9-8-2.2c-1.2-2.7,1.6-4.7,3.4-6.6c0.3-0.4,0.7-0.7,1.1-1
			C104.2,160.7,102.5,152.7,95.8,142.7z"/>
		<path d="M312.5,58.2c7.5-0.1,14.9,0.3,22.1,2.9c2,0.7,4.5,1.2,4.2,4.1c-0.2,2.8-1.3,5.3-4.3,6.1c-2.9,0.7-5.8,1.2-8.8,1.8
			c-5.4,1-6.6,2.8-5.8,8.3c0.6,4.2,3,7.7,4.5,11.5c1.7,4.3,3.1,8.8-0.7,12.5c-2,2-8.7-2-11.7-6.6c-3.5-5.4-4.8-11.6-6.5-17.6
			c-0.9-3.1-1.7-4.9-5.7-3.5c-2.6,1-5.9,0.6-8.9,0.3c-3.9-0.4-8-1.4-8.7-6c-0.7-4.5,1.9-8,5.9-10.1c5.4-2.8,11.5-3.1,17.4-3.7
			C307.8,58,310.1,58.2,312.5,58.2z"/>
		<path d="M379.2,84.2c-0.2,7.7-0.4,14.5,1.7,21.1c0.9,2.9-0.8,3.9-2.8,4.8c-2.4,1-3.8-0.3-4.7-2.3c-2.1-4.5-1.9-9.3-1.7-14.2
			c0.1-1.7,2-5-1.8-5c-3.1,0-7.7-2-8,4.1c-0.1,2.1-0.6,4.3-1.2,6.3c-0.6,2.1-2.3,3.4-4.5,3.4c-2,0-2.5-1.9-3.2-3.3
			c-1.3-2.7-1.3-5.5-0.3-8.2c3.2-8.9,5.6-18,6.6-27.5c0.3-3,2-6.7,5.2-8.4c6.8-3.6,9.1-2.6,12,4.5C379.8,67.8,379.9,76.4,379.2,84.2
			z"/>
		<path fill="#010101" d="M405,81.5c0-6.3,0-12.6,0-18.9c0-1.4-0.3-3.3,1.6-3.7c2.1-0.4,3.5,0.9,4.2,2.7c1.5,3.8,1.6,7.8,2,11.7
			c0.7,8.1,1.4,16.2,1.8,24.3c0.1,3,0.8,4.3,4.2,4.4c3.4,0.1,6.8,1.2,10.3,1.8c3.6,0.6,5.4,3.1,6.4,6.2c1.6,4.8-0.2,6.9-5.2,6.1
			c-4.9-0.8-9.9-1.4-14.7-2.6c-6.9-1.7-10.4-6-10.7-13.2c-0.3-6.3-0.1-12.6-0.1-18.9C404.9,81.5,404.9,81.5,405,81.5z"/>
		<path fill="#FCFCFC" d="M70.7,225.1c7.4-2.4,13.1-0.5,18.4,3.4c2.4,1.8,3.2,4.5,2.4,7.6c-1.1,4.7-2.8,9.2-5,13.9
			C81.5,241.5,76.8,233.2,70.7,225.1z"/>
		<path fill="#FDFDFD" d="M44.7,200.1c-4.6-7.6-8.6-14.7-13.7-21c-1.9-2.3-0.7-3.1,1.4-3.6c5.3-1.2,10.3-0.4,14.7,2.8
			c2.4,1.7,3.1,4.2,2.5,7.1C48.5,190.2,46.8,194.8,44.7,200.1z"/>
		<path fill="#F0F0F0" d="M369.8,67.4c3.5,5.5,1.2,10.5,2,15.3c-6.7-0.3-7.1-0.9-5-7C367.6,73.2,368.6,70.8,369.8,67.4z"/>
	</g>
</g>
</svg>
