<?xml version="1.0" encoding="utf-8"?>
<!-- Generator: Adobe Illustrator 19.2.1, SVG Export Plug-In . SVG Version: 6.00 Build 0)  -->
<svg version="1.1" xmlns="http://www.w3.org/2000/svg" xmlns:xlink="http://www.w3.org/1999/xlink" x="0px" y="0px"
	 viewBox="0 0 240.7 206" enable-background="new 0 0 240.7 206" xml:space="preserve">
<g id="Background">
</g>
<g id="V">
	<polygon stroke="#000000" stroke-linecap="round" stroke-miterlimit="10" points="109.7,22.9 5.6,203.1 213.7,203.1 	"/>
</g>
<g id="White_A">
	<polygon fill="#FFFFFF" points="144.2,3.7 40.2,184 248.3,184 	"/>
</g>
<g id="A">
	<polygon points="124.9,49.3 50.6,177.9 199.1,177.9 	"/>
	<polygon fill="#FFFFFF" points="125.2,86.9 72.5,178.3 178,178.3 	"/>
	
		<rect x="87.8" y="122.2" stroke="#000000" stroke-width="1.1592" stroke-linecap="round" stroke-miterlimit="10" width="74.6" height="15.6"/>
	<rect x="64.6" y="163.8" width="124.9" height="1.8"/>
	<rect x="62.6" y="159.3" width="124.9" height="2.6"/>
	<rect x="74.9" y="153.8" width="103.1" height="3.6"/>
	<rect x="75.5" y="147.4" width="103.1" height="4.5"/>
	<rect x="74" y="139.6" width="103.1" height="5.6"/>
	<rect x="62.8" y="167.5" width="124.9" height="1.2"/>
	<rect x="63.1" y="170.7" width="124.9" height="1.2"/>
	<rect x="60.6" y="173" width="124.9" height="0.6"/>
	<rect x="64" y="174.6" width="124.9" height="0.3"/>
	<rect x="63.7" y="175.9" width="124.9" height="0.2"/>
	<rect x="66.2" y="175.5" width="124.9" height="0.2"/>
</g>
<g id="nguard">
	<path d="M122.1,24.9c-1.2-2.4-2.3-4.9-3.8-6.8c4,1.9,7.2,7,12.5,6.4c1.2-7.2-6.3-9.8-8.4-15.2c-0.8-2,0.6-4.1-1.6-5.5
		c-0.1,0.2-0.3,0.2-0.5,0.1c-3.2,8,5.4,11.3,7.1,17.3c-4.1-1.8-5.6-5.1-10.7-6.3c-0.6,0.7-1.6,0.6-2,1.8c0.3,0.1,0,0.5,0.2,0.6
		c1.2,2.3,3.2,4.3,4.3,6.7c1.4,2.8,1.5,7.3,5.1,8C125.9,29,123.1,26.9,122.1,24.9"/>
	<g>
		<g>
			<path d="M137.3,31.6c0.7-2.9-2.7-4.5-4.9-2.8c-3.8,2.8-4.9,10.4-4.4,14.6c0.6,4.4,4.1,7.8,8.6,7.5c4-0.3,7.5-3.6,6-7.7
				c-0.4-1-1.5-1.1-2.1-0.3c-0.9,1.2-1.7,2.7-3.1,3.3c-2.6,1.1-4.9-0.4-5.7-2.9c-0.5-1.8-0.1-4.4,0.3-6.1c0.2-0.8,0.5-1.7,0.8-2.5
				c0.4-1.5,1.2-2.6,2.5-3.4C135.6,32.2,137,32.9,137.3,31.6L137.3,31.6z"/>
		</g>
	</g>
	<g>
		<g>
			<path d="M137.6,41.4c0-0.1,0-0.1-0.1-0.2c-0.2-0.6-1-1-1.6-0.9c-0.3,0-0.5,0.1-0.8,0.3c-0.6,0.4-1,1.1-0.8,1.8
				c0.4,1.2,1.3,1.9,2.6,1.7c0.7-0.1,1.2-0.6,1.8-1c0.3-0.2,0.6-0.4,0.9-0.7c0.7-0.5,1.1-0.4,0.3-1.2c-0.9-0.8-0.6-0.5-0.5,0.1
				c0,0.4,0.1,0.7,0.1,1.1c0.1,0.9,0.3,1.7,0.5,2.6c0.4,1.6,0.7,3.2,2.3,3.9c0.5,0.2,1.2,0.1,1.5-0.5c0.7-1.6,0-2.9-0.4-4.6
				c-0.3-1.5-0.2-3.3-0.9-4.6c-0.6-1.1-1.8-1.8-3.1-1.3c-0.7,0.3-1.2,0.8-1.8,1.2c-0.4,0.3-0.7,0.6-1.1,0.9
				c-0.2,0.2-0.8,0.4-0.5,0.5c0.5,0.3,0.9,0.7,1.4,1c0-0.1-0.1-0.1-0.1-0.2c0,0.4,0.1,0.9,0.1,1.3c-0.1,0.1-0.1,0.2-0.2,0.3
				c-0.5,0.1-0.9,0.2-1.4,0.2c0,0,0.1,0,0.1,0.1C137.3,44.1,137.9,42.4,137.6,41.4L137.6,41.4z"/>
		</g>
	</g>
	<path d="M162.3,80.4c-2.7,0.9-2.7,3.8-4.2,5.7c0.4,2,1.3,4,1,6c2.8,4.3,5,9,6.9,13.9c1.6,4.2,2.3,10.8,8.3,12
		c3.8-4.2-2.9-8.4-2.1-12.6c2.1-0.7,2.4-2.7,4.2-3.2c2.6,3.5,5.2,9.9,10.4,11.3c2.4-1.5,1.1-2.9,2.1-4.4
		C177.7,100.9,176,86.8,162.3,80.4 M174,98.7c-1.3,1.2-2.5,1.7-3.8,2.2c-2.3-3.6-2.6-7.1-4.2-10.7C169.7,90.6,171.2,96.2,174,98.7"
		/>
	<g>
		<g>
			<path d="M140.2,61.8c1,5.4,8.7,23.5,16.8,19.1c9.8-5.4-3.1-22.4-6.7-27.5c-1.5-2.1-4.4,0.1-3.3,2.3c1.7,3.3,3.7,6.3,5.5,9.5
				c0.9,1.6,6.6,12.3,0.1,10.8c-2.4-0.6-5.4-6.5-6.5-8.4c-1.3-2.3-2.3-4.6-3.8-6.7C141.5,59.5,140,60.5,140.2,61.8L140.2,61.8z"/>
		</g>
	</g>
	<g>
		<g>
			<path d="M190.3,153.7c0.2,0.1,0.3,0.3,0.5,0.4c0.7,0.6,2.2,0.8,2.9,0c4.4-5.5-3.1-12.6-5.7-17.2c-1.2-2-2.3-4.3-2.1-6.7
				c0.1-1.9,1.7-5.7,4-6c1.7-0.8,2.3-0.2,2,1.7c0.1,1.2,0,2.4-0.2,3.6c-0.4,2.3-1.4,4.4-2.5,6.4c-1.3,2.1,0.2,5.2,2.7,5.5
				c2.4,0.3,4.9,0,7.3,0.4c3.3,0.6,4.1,2.1,5.4,4.8c1.4,2.7,4.9,2.2,5.3-0.8c0.4-3.6-1.6-6.9-4.5-8.9c-4-2.7-8.8-1.9-13.3-2.4
				c0.9,1.8,1.8,3.7,2.7,5.5c2.9-5.1,4.9-11.9,2.7-17.6c-1.9-4.8-6.4-6.1-10.9-3.7c-4.7,2.5-7,8-6.4,13.2c0.5,3.5,2.1,6.7,4,9.7
				c1.2,1.9,6.5,7.5,5.6,9.6C189.2,152.1,189.5,153,190.3,153.7L190.3,153.7z"/>
		</g>
	</g>
	<g>
		<g>
			<path d="M200.4,165.8c2.3,6.3,6,12.2,9.3,18c3.4,5.9,6.7,11.8,10.1,17.6c1.6,2.7,6,3.7,7-0.1c1.5-5.6,7.9-8.6,10.5-13.7
				c2.9-5.7,0.5-11.3-3.1-16c-4.1-5.4-9.8-9.6-15.9-12.4c-5.1-2.3-14.7-6.1-19.9-2.8c-2.2,1.4-1.2,4.1,0.7,5.2
				c4,2.4,10.1,1.8,14.6,3.6c5.6,2.1,10.7,5.6,14.5,10.3c1.7,2.1,3.8,4.5,2.7,7.3c-0.7,1.9-2.7,3.5-4.1,4.9c-3.1,3.1-6,6.2-7.3,10.5
				c2.3,0,4.7-0.1,7-0.1c-3.6-6.1-7.3-12.2-11-18.3c-3.5-5.7-6.8-11.8-11.2-16.9C202,160.4,199.3,163,200.4,165.8L200.4,165.8z"/>
		</g>
	</g>
	<g>
	</g>
	<g>
	</g>
	<g>
	</g>
	<g>
	</g>
	<g>
	</g>
	<g>
	</g>
</g>
</svg>
