<?xml version="1.0" encoding="utf-8"?>
<!-- Generator: Adobe Illustrator 19.2.1, SVG Export Plug-In . SVG Version: 6.00 Build 0)  -->
<svg version="1.1" id="Layer_1" xmlns="http://www.w3.org/2000/svg" xmlns:xlink="http://www.w3.org/1999/xlink" x="0px" y="0px"
	 viewBox="0 0 243 298" style="enable-background:new 0 0 243 298;" xml:space="preserve">
<style type="text/css">
	.st0{stroke:#000000;stroke-linecap:round;stroke-miterlimit:10;}
	.st1{fill:#FFFFFF;}
	.st2{stroke:#000000;stroke-width:1.1592;stroke-linecap:round;stroke-miterlimit:10;}
	.st3{fill:#050708;}
	.st4{fill:#010101;}
	.st5{fill:#FCFCFC;}
	.st6{fill:#FDFDFD;}
	.st7{fill:#F0F0F0;}
</style>
<g id="Background">
</g>
<g id="V">
	<polygon class="st0" points="108.7,23.9 4.6,204.1 212.7,204.1 	"/>
</g>
<g id="White_A">
	<polygon class="st1" points="143.2,4.7 39.2,185 247.3,185 	"/>
</g>
<g id="A">
	<polygon points="123.9,50.3 49.6,178.9 198.1,178.9 	"/>
	<polygon class="st1" points="124.2,87.9 71.5,179.3 177,179.3 	"/>
	<rect x="86.8" y="123.2" class="st2" width="74.6" height="15.6"/>
	<rect x="63.6" y="164.8" width="124.9" height="1.8"/>
	<rect x="61.6" y="160.3" width="124.9" height="2.6"/>
	<rect x="73.9" y="154.8" width="103.1" height="3.6"/>
	<rect x="74.5" y="148.4" width="103.1" height="4.5"/>
	<rect x="73" y="140.6" width="103.1" height="5.6"/>
	<rect x="61.8" y="168.5" width="124.9" height="1.2"/>
	<rect x="62.1" y="171.7" width="124.9" height="1.2"/>
	<rect x="59.6" y="174" width="124.9" height="0.6"/>
	<rect x="63" y="175.6" width="124.9" height="0.3"/>
	<rect x="62.7" y="176.9" width="124.9" height="0.2"/>
	<rect x="65.2" y="176.5" width="124.9" height="0.2"/>
</g>
<g id="nguard">
	<path d="M121.1,25.9c-1.2-2.4-2.3-4.9-3.8-6.8c4,1.9,7.2,7,12.5,6.4c1.2-7.2-6.3-9.8-8.4-15.2c-0.8-2,0.6-4.1-1.6-5.5
		c-0.1,0.2-0.3,0.2-0.5,0.1c-3.2,8,5.4,11.3,7.1,17.3c-4.1-1.8-5.6-5.1-10.7-6.3c-0.6,0.7-1.6,0.6-2,1.8c0.3,0.1,0,0.5,0.2,0.6
		c1.2,2.3,3.2,4.3,4.3,6.7c1.4,2.8,1.5,7.3,5.1,8C124.9,30,122.1,27.9,121.1,25.9"/>
	<g>
		<g>
			<path d="M136.3,32.6c0.7-2.9-2.7-4.5-4.9-2.8c-3.8,2.8-4.9,10.4-4.4,14.6c0.6,4.4,4.1,7.8,8.6,7.5c4-0.3,7.5-3.6,6-7.7
				c-0.4-1-1.5-1.1-2.1-0.3c-0.9,1.2-1.7,2.7-3.1,3.3c-2.6,1.1-4.9-0.4-5.7-2.9c-0.5-1.8-0.1-4.4,0.3-6.1c0.2-0.8,0.5-1.7,0.8-2.5
				c0.4-1.5,1.2-2.6,2.5-3.4C134.6,33.2,136,33.9,136.3,32.6L136.3,32.6z"/>
		</g>
	</g>
	<g>
		<g>
			<path d="M136.6,42.4c0-0.1,0-0.1-0.1-0.2c-0.2-0.6-1-1-1.6-0.9c-0.3,0-0.5,0.1-0.8,0.3c-0.6,0.4-1,1.1-0.8,1.8
				c0.4,1.2,1.3,1.9,2.6,1.7c0.7-0.1,1.2-0.6,1.8-1c0.3-0.2,0.6-0.4,0.9-0.7c0.7-0.5,1.1-0.4,0.3-1.2c-0.9-0.8-0.6-0.5-0.5,0.1
				c0,0.4,0.1,0.7,0.1,1.1c0.1,0.9,0.3,1.7,0.5,2.6c0.4,1.6,0.7,3.2,2.3,3.9c0.5,0.2,1.2,0.1,1.5-0.5c0.7-1.6,0-2.9-0.4-4.6
				c-0.3-1.5-0.2-3.3-0.9-4.6c-0.6-1.1-1.8-1.8-3.1-1.3c-0.7,0.3-1.2,0.8-1.8,1.2c-0.4,0.3-0.7,0.6-1.1,0.9
				c-0.2,0.2-0.8,0.4-0.5,0.5c0.5,0.3,0.9,0.7,1.4,1c0-0.1-0.1-0.1-0.1-0.2c0,0.4,0.1,0.9,0.1,1.3c-0.1,0.1-0.1,0.2-0.2,0.3
				c-0.5,0.1-0.9,0.2-1.4,0.2c0,0,0.1,0,0.1,0.1C136.3,45.1,136.9,43.4,136.6,42.4L136.6,42.4z"/>
		</g>
	</g>
	<path d="M161.3,81.4c-2.7,0.9-2.7,3.8-4.2,5.7c0.4,2,1.3,4,1,6c2.8,4.3,5,9,6.9,13.9c1.6,4.2,2.3,10.8,8.3,12
		c3.8-4.2-2.9-8.4-2.1-12.6c2.1-0.7,2.4-2.7,4.2-3.2c2.6,3.5,5.2,9.9,10.4,11.3c2.4-1.5,1.1-2.9,2.1-4.4
		C176.7,101.9,175,87.8,161.3,81.4 M173,99.7c-1.3,1.2-2.5,1.7-3.8,2.2c-2.3-3.6-2.6-7.1-4.2-10.7C168.7,91.6,170.2,97.2,173,99.7"
		/>
	<g>
		<g>
			<path d="M139.2,62.8c1,5.4,8.7,23.5,16.8,19.1c9.8-5.4-3.1-22.4-6.7-27.5c-1.5-2.1-4.4,0.1-3.3,2.3c1.7,3.3,3.7,6.3,5.5,9.5
				c0.9,1.6,6.6,12.3,0.1,10.8c-2.4-0.6-5.4-6.5-6.5-8.4c-1.3-2.3-2.3-4.6-3.8-6.7C140.5,60.5,139,61.5,139.2,62.8L139.2,62.8z"/>
		</g>
	</g>
	<g>
		<g>
			<path d="M189.3,154.7c0.2,0.1,0.3,0.3,0.5,0.4c0.7,0.6,2.2,0.8,2.9,0c4.4-5.5-3.1-12.6-5.7-17.2c-1.2-2-2.3-4.3-2.1-6.7
				c0.1-1.9,1.7-5.7,4-6c1.7-0.8,2.3-0.2,2,1.7c0.1,1.2,0,2.4-0.2,3.6c-0.4,2.3-1.4,4.4-2.5,6.4c-1.3,2.1,0.2,5.2,2.7,5.5
				c2.4,0.3,4.9,0,7.3,0.4c3.3,0.6,4.1,2.1,5.4,4.8c1.4,2.7,4.9,2.2,5.3-0.8c0.4-3.6-1.6-6.9-4.5-8.9c-4-2.7-8.8-1.9-13.3-2.4
				c0.9,1.8,1.8,3.7,2.7,5.5c2.9-5.1,4.9-11.9,2.7-17.6c-1.9-4.8-6.4-6.1-10.9-3.7c-4.7,2.5-7,8-6.4,13.2c0.5,3.5,2.1,6.7,4,9.7
				c1.2,1.9,6.5,7.5,5.6,9.6C188.2,153.1,188.5,154,189.3,154.7L189.3,154.7z"/>
		</g>
	</g>
	<g>
		<g>
			<path d="M199.4,166.8c2.3,6.3,6,12.2,9.3,18c3.4,5.9,6.7,11.8,10.1,17.6c1.6,2.7,6,3.7,7-0.1c1.5-5.6,7.9-8.6,10.5-13.7
				c2.9-5.7,0.5-11.3-3.1-16c-4.1-5.4-9.8-9.6-15.9-12.4c-5.1-2.3-14.7-6.1-19.9-2.8c-2.2,1.4-1.2,4.1,0.7,5.2
				c4,2.4,10.1,1.8,14.6,3.6c5.6,2.1,10.7,5.6,14.5,10.3c1.7,2.1,3.8,4.5,2.7,7.3c-0.7,1.9-2.7,3.5-4.1,4.9c-3.1,3.1-6,6.2-7.3,10.5
				c2.3,0,4.7-0.1,7-0.1c-3.6-6.1-7.3-12.2-11-18.3c-3.5-5.7-6.8-11.8-11.2-16.9C201,161.4,198.3,164,199.4,166.8L199.4,166.8z"/>
		</g>
	</g>
</g>
<g>
	<g>
		<g>
			<path class="st3" d="M125.5,298c-1.9-2.6-2.6-5-3.1-7.5c-2-9.3-1.7-18.6-1.6-28c0-6,0.2-11.9-1.5-17.7c-0.3-1-0.4-2-2.3-2.5
				c-1.5-0.4-1.7-1.5-1.1-2.5c0.5-1,0.7-2.2,3-2.6c0.8-0.1,1.5-0.2,2.3-0.4c2.8-0.6,3.7-1.4,3.2-3.2c-0.4-1.6,0-3.2-1.1-4.8
				c-0.5-0.7-0.1-1.9,0.4-3c1-2.1,1.2-4.2,0.8-6.3c-0.1-0.3-1.2-0.5-1.4-0.8c-0.4-0.7-2.9-1.2-0.4-2.3c0.1-0.1,0.2-0.2,0.1-0.3
				c-0.7-2-0.3-2.5,2.4-3.7c0.6-0.3,1.5-0.4,1.2-1.1c-0.2-0.4,0.5-0.8,1.4-1c0.8-0.1,1.3,0.2,1,0.6c-0.4,0.9,0.7,0.8,1.3,1
				c1.8,0.6,2.9,1.1,2.8,3c-0.1,1.6-1,2.5-2.2,3.7c-0.5,0.6-1,1.5-0.6,2.3c0.6,1.5-0.1,3.3,1.2,4.7c0.5,0.6,0,1.9-0.4,3
				c-0.9,2.1-1.7,4.4-0.5,6.4c0.5,0.9,2.2,0.7,3.4,0.6c2.7-0.3,3.9,0.4,4.4,1.9c0.4,1.4,0,2.5-2.3,3.5c-0.9,0.4-0.9,1.1-1.1,1.8
				c-2.3,6.5-2.4,12.9-2.6,19.3c-0.3,8.5-0.6,16.9-2.3,25.3C128.9,291.1,128,294.5,125.5,298z"/>
			<path d="M183.2,271.2c-2.4,3.9-4.8,4.9-7.7,3.5c-0.7-0.3-1.2-0.7-1.1-1.5c0.5-3.8,1.5-7.5,4-11.3c1.1-1.6,2.5-3.2,4.9-3.5
				c2.3-0.3,3.7,0.8,4.4,2.4c0.5,1.1,0.8,2.3,1.2,3.6c0.4,1.6,0.7,3.2,1.2,4.7c0.3,1,0.3,2.5,1.8,2.3c1.7-0.2,2.3-1.8,2.9-3.1
				c0.8-2,1.5-4,2.4-6c0.6-1.4,1.6-2.8,3.3-2.6c1.5,0.2,3,0.4,2.9,2.7c-0.3,4.7-1.1,9.3-3.7,13.6c-0.9,1.7-2.2,3.1-3.8,4.2
				c-4.1,2.7-6.1,2.3-8-1.2C186.5,276.5,185.6,273.5,183.2,271.2z"/>
			<path d="M93.3,241.7c-1.4-0.1-2.8-0.1-4.3-0.3c-1.4-0.2-2.8-0.3-3.3-1.6c-0.4-1.2,0.4-1.8,1.8-2.2c2.8-0.8,6-0.8,9.2-0.8
				c5.6,0,5.7-0.1,5.4,3.4c-0.1,2-0.1,4-1.3,5.9c-1,1.6-2.7,1.8-4.5,0.4c-1.3-0.9-2.1-0.8-3.5-0.4c-4.4,1.2-8.9,0.9-13.2-1.4
				c-1.6-0.8-2.9-1.9-2.9-3.3c-0.3-4.7,1.6-8.5,6.8-10.9c3-1.4,6.3-1.3,9.6,0.2c1.9,0.8,2.7,2.6,1.5,3.9c-1.1,1.3-2.8,0.9-4.4,0
				c-0.7-0.4-1.2-0.4-1.8-0.1c-2.2,1.3-4.2,2.7-4.9,4.7c-0.5,1.3-0.2,2.6,1.6,3.7c1.7,1.1,3.2,0.5,4.8,0.3c1.3-0.2,2.5-0.7,3.8-1
				C93.5,242.1,93.4,241.9,93.3,241.7z"/>
			<path d="M162.4,269.5c-1.5-0.1-3-0.2-4.4-0.4c-1.7-0.2-2.7-1-2.5-2.5c0.3-1.5,1.7-2,3.4-2.4c3.6-0.7,6.9-0.4,10.1-0.2
				c0.8,0.1,0.9,0.5,0.8,1c-0.4,3-0.4,5.9-1.4,8.9c-0.2,0.5-0.4,1-0.7,1.5c-1,1.6-2.3,2-3.4,0.6c-1.2-1.5-2.4-1.4-4.6-0.9
				c-6.1,1.4-13.4-2.8-12.6-6.9c0.7-3.6,1.7-7.1,5.4-10.3c3.3-2.9,7.3-3.5,10.4-1.4c1.7,1.1,1.3,2.8,0.6,4.4
				c-0.7,1.6-2.4,1.2-3.2,0.6c-1.5-1.3-2.5-0.5-3.6,0.6c-2.4,2.3-4.2,4.5-3.3,7.1c0.8,2.3,2.6,2.9,5.8,1.9c1-0.3,2-0.7,3-1.1
				C162.4,269.8,162.4,269.7,162.4,269.5z"/>
			<path d="M97.8,268c-0.8-1.5-2.3-2.4-3.5-3.4c-1.3-1.1-2.7-2.1-3.7-3.4c-2.2-3.1,0.3-5.7,5.2-5.2c3.2,0.2,6.3,0.5,9.3,1.2
				c2.4,0.5,3.2,1.6,2.9,3.4c-0.3,1.6-2.1,1.9-4.1,1.8c-0.5,0-1.1-0.1-1.8-0.1c1.5,1.8,3.5,3.2,4.6,5c0.6,1,1.2,2,1.3,3
				c0.1,2.3-1.3,3.2-4.7,3.2c-3.6,0-7.2-0.3-10.6-1.4c-1.6-0.5-2.9-1.2-4-2.2c-0.6-0.5-1.6-1.1-0.9-1.8c0.5-0.7,1.5-1,2.7-0.9
				c1.4,0.1,2.8,0.3,4.3,0.5C95.6,267.6,96.5,267.8,97.8,268z"/>
			<path d="M58.2,265.6c1.7,1.5,3.6,1.7,5.5,2.1c3.9,0.8,5.2,1.8,5,3.8c0,0.6-0.2,1-1.1,1.1c-4.6,0.3-9.2,0.2-13.7-1.8
				c-3.3-1.5-4.4-3.4-3.9-6c0.6-3.7,3.5-6.2,5.5-9c0.3-0.4,1-0.4,1.6-0.5c4.6-0.5,9.4,0.2,14.3,1.5c2.6,0.7,1.8,2,2.1,3.2
				c0.3,1.3-1.1,1.1-2.2,1.2c-2.3,0.1-4.5-0.7-6.7-1.1c-1.8-0.3-3.4-0.3-4.8,0.5c1.7,1.1,3.6,1,5.2,1.5c1.2,0.4,2.7,0.7,2.6,1.9
				c-0.2,1.1-0.6,2-2.5,2.1C63,266,60.7,265.3,58.2,265.6z"/>
			<path d="M39.6,267c-1.7,3.8-5.6,7.1-9.8,10.2c-1.7,1.3-3.8,0.3-4.4-1.8c-1.6-5.3-3.4-10.8-4.2-16.4c-0.1-0.7,0-1.3-1.1-1.9
				c-2.2-1.2-2.4-2.4-0.8-3.7c3.7-3,9.8-1.5,15.3,2.7C39.2,259.8,41,262.8,39.6,267z"/>
			<path d="M18.2,224.1c1.8,1.2,3.3,2.7,4.8,4.4c3.3,3.7,4.2,6.9,2.7,9.9c-2,4.1-5.6,6.8-9.3,9.6c-1.9,1.4-3.9,0.2-4.7-2.7
				c-1.4-5.6-3-11.5-3.7-17.2c-0.1-0.7-0.1-1.3-1-2c-2-1.4-2.3-2.9-0.8-3.9C9.4,219.9,13.3,220.7,18.2,224.1z"/>
			<path d="M47,233.4c-1.2,0.1-2.2,0.5-3.4,0.2c-1.1-0.2-2.1-0.8-2.8-1.9c-0.8-1.2,0.3-1.2,0.8-1.5c2.8-1.5,5.8-2.9,9.5-3.5
				c1.8-0.3,3.8-0.3,6,0.2c0.7,0.2,1.8,0.1,2.2,1c0.3,0.7-0.1,1.2-0.7,1.5c-1.2,0.5-2.6,0.9-3.8,1.3c-1.1,0.4-2.7,0.4-2.6,1.6
				c0.2,2.5,0,5.1,1.7,7.8c0.5,0.9,1.5,0.6,2.2,0.5c1.8-0.3,3.5-0.8,5.4-1.1c1.3-0.2,2.3-0.1,3.4,1.2c1.1,1.2,0.5,1.8-0.4,2.3
				c-5.7,2.9-12.5,3.9-20.3,2.7c-0.3-0.1-0.6-0.2-1-0.3c-1.5-0.5-3.2-1.2-3.5-2.6c-0.3-1.2,1.3-1.3,2.4-1.5c0.2-0.1,0.4-0.1,0.6-0.1
				C48.8,241.4,49,238.4,47,233.4z"/>
			<path d="M165.7,226.6c3.6-0.3,7.1-0.6,10.1,0.1c0.8,0.2,1.9,0.3,1.4,1.5c-0.5,1.2-1.4,2.3-2.9,2.8c-1.5,0.4-2.9,0.7-4.4,1.1
				c-2.7,0.6-3.6,1.3-4,3.5c-0.3,1.6,0.3,3,0.5,4.5c0.2,1.7,0.2,3.4-2.1,4.9c-1.2,0.8-3.9-0.8-4.7-2.5c-0.9-2-0.6-4.4-0.6-6.7
				c0-1.2-0.1-1.8-2.3-1.3c-1.4,0.4-3,0.3-4.4,0.2c-1.8-0.1-3.7-0.5-3.4-2.2c0.3-1.7,2.1-2.9,4.4-3.8c3-1.1,6.1-1.4,9-1.9
				C163.5,226.7,164.5,226.7,165.7,226.6z"/>
			<path d="M193.3,234.4c-1.1,3.6-2.2,6.6-2.1,9.5c0,1.3-0.9,1.8-2,2.2c-1.2,0.5-1.7-0.1-1.9-0.9c-0.4-1.9,0.4-4,1.2-6.2
				c0.3-0.8,1.6-2.3-0.1-2.2c-1.4,0.1-3.3-0.5-4.3,2.1c-0.3,0.9-0.9,1.9-1.4,2.8c-0.6,0.9-1.6,1.5-2.6,1.6c-0.9,0-0.9-0.7-1-1.3
				c-0.2-1.1,0.2-2.3,1-3.5c2.8-3.9,5.1-8,6.9-12.4c0.6-1.4,1.8-3.2,3.5-4.2c3.6-2.2,4.5-2,4.8,1.1
				C195.8,226.7,194.7,230.8,193.3,234.4z"/>
			<path class="st4" d="M205.3,231.6c0.8-3.1,1.6-6.3,2.4-9.6c0.2-0.7,0.3-1.7,1.2-2.1c1-0.4,1.4,0.1,1.5,1c0.2,1.8-0.3,3.9-0.6,5.9
				c-0.7,4.1-1.4,8.2-2.3,12.2c-0.3,1.5-0.2,2.1,1.3,2c1.5-0.1,2.9,0.3,4.4,0.5c1.5,0.2,2,1.4,2.1,3c0.1,2.5-0.9,3.6-3.1,3.2
				c-2.1-0.3-4.3-0.5-6.3-1c-2.9-0.7-3.9-2.6-3.1-6.1C203.5,237.8,204.4,234.7,205.3,231.6C205.3,231.6,205.3,231.6,205.3,231.6z"/>
			<path class="st5" d="M25.4,257.2c3.7,0.7,6.2,2.7,8.2,5.2c0.9,1.2,1,2.3,0.2,3.4c-1.1,1.6-2.4,3-4,4.4
				C28.5,266,27.3,261.8,25.4,257.2z"/>
			<path class="st6" d="M16.4,240.8c-1.2-4.3-2.2-8.4-3.7-12.6c-0.6-1.5,0.1-1.5,1-1c2.5,1.2,4.7,3.1,6.3,5.7
				c0.9,1.4,0.9,2.5,0.3,3.5C19.3,237.9,17.9,239.2,16.4,240.8z"/>
			<path class="st7" d="M191.3,227.2c0.9,2.3-0.9,4.7-1.2,6.9c-3,0.2-3.1,0-1.3-2.9C189.5,230,190.3,228.9,191.3,227.2z"/>
		</g>
	</g>
</g>
</svg>
